<?xml version="1.0" standalone="no"?>
<!DOCTYPE svg PUBLIC "-//W3C//DTD SVG 20010904//EN"
 "http://www.w3.org/TR/2001/REC-SVG-20010904/DTD/svg10.dtd">
<svg version="1.0" xmlns="http://www.w3.org/2000/svg"
 width="260.000000pt" height="260.000000pt" viewBox="0 0 260.000000 260.000000"
 preserveAspectRatio="xMidYMid meet">
<metadata>
Created by potrace 1.14, written by Peter Selinger 2001-2017
</metadata>
<g transform="translate(0.000000,260.000000) scale(0.100000,-0.100000)"
fill="#000000" stroke="none">
<path d="M340 2230 c0 -3 9 -13 20 -23 26 -22 25 -35 -5 -187 -7 -33 -15 -78
-21 -115 -2 -16 -8 -50 -14 -75 -5 -25 -16 -83 -25 -130 -22 -116 -22 -116
-58 -139 l-32 -21 135 0 c130 0 134 1 113 18 -31 24 -32 73 -2 205 10 44 13
47 42 48 160 2 261 49 310 144 25 49 26 128 3 172 -16 32 -65 74 -99 87 -47
16 -367 30 -367 16z m275 -32 c44 -20 64 -74 61 -159 -4 -130 -56 -193 -170
-204 l-39 -4 6 42 c4 23 8 51 10 62 3 11 15 77 28 148 23 126 24 127 51 127
15 0 39 -5 53 -12z"/>
<path d="M934 2041 c-35 -21 -84 -80 -84 -101 0 -9 8 -6 23 8 48 45 67 21 82
-103 3 -27 12 -90 20 -140 8 -49 16 -108 20 -130 3 -22 8 -57 11 -79 5 -34 2
-42 -27 -72 -39 -40 -76 -44 -119 -12 -27 20 -78 27 -99 14 -5 -3 -14 -19 -19
-35 -23 -64 44 -107 127 -82 78 23 192 150 337 374 76 116 155 264 164 303 11
46 -10 74 -55 74 -46 0 -67 -29 -94 -132 -31 -116 -102 -341 -106 -336 -2 1
-6 30 -9 63 -38 367 -39 369 -69 390 -29 20 -66 19 -103 -4z"/>
<path d="M1422 1689 c-13 -5 -29 -24 -37 -43 -18 -44 -8 -76 35 -107 22 -17
28 -28 24 -43 -8 -25 -40 -58 -87 -89 -50 -34 -33 -42 29 -13 52 24 118 89
136 134 20 49 20 115 1 139 -20 25 -66 35 -101 22z"/>
<path d="M830 1053 c-25 -10 -74 -54 -92 -84 -19 -31 -9 -39 16 -14 17 17 42
20 51 5 6 -10 29 -135 40 -220 3 -25 10 -70 15 -100 5 -30 12 -77 16 -105 3
-27 8 -57 9 -66 4 -17 -21 -44 -65 -72 -24 -15 -28 -14 -83 13 -33 16 -66 26
-75 23 -86 -30 -57 -133 37 -133 36 0 94 28 139 66 104 87 412 563 412 638 0
42 -48 68 -95 50 -25 -10 -40 -47 -80 -198 -47 -179 -91 -301 -92 -254 0 25
-13 173 -17 198 -3 14 -7 57 -11 95 -7 84 -22 136 -44 152 -17 13 -55 16 -81
6z"/>
<path d="M1515 1043 c-89 -35 -180 -126 -232 -230 -31 -62 -36 -82 -36 -141 0
-99 38 -146 118 -146 26 0 74 25 117 63 25 22 48 41 51 41 2 0 4 -14 5 -31 2
-93 115 -96 201 -5 37 39 30 49 -12 16 -30 -24 -67 -26 -67 -4 0 14 84 397 96
437 4 12 0 17 -15 17 -11 0 -22 -4 -25 -9 -10 -15 -53 -18 -77 -5 -32 18 -75
16 -124 -3z m83 -37 c10 -10 6 -43 -23 -172 -33 -149 -38 -161 -70 -191 -38
-36 -77 -42 -110 -17 -30 23 -27 176 4 258 45 114 143 175 199 122z"/>
<path d="M1955 1036 c-113 -34 -114 -35 -85 -49 33 -17 35 -40 11 -154 -11
-54 -36 -177 -56 -273 -41 -204 -49 -226 -84 -245 l-26 -14 38 -1 c20 -1 53
-2 72 -2 19 0 61 1 93 2 56 1 57 1 30 16 -33 18 -35 43 -12 144 l15 68 47 -1
c149 -4 324 189 336 370 5 78 -9 120 -47 143 -60 37 -119 22 -201 -51 l-48
-43 7 35 c4 19 9 44 12 57 6 28 -6 27 -102 -2z m232 -83 c13 -20 18 -45 17
-98 -3 -163 -68 -285 -152 -285 -23 0 -82 26 -82 36 0 3 7 40 16 82 9 42 18
86 20 97 26 134 29 141 83 177 39 27 77 23 98 -9z"/>
</g>
</svg>
